:version 1.10
:name ASF
:units
  mass 1
  length 1
  angle deg
:documentation
  ASF file generated by Kaydara
:root
  axis xyz
  order  tx ty tz rx ry rz
  position 0 0 0
  orientation 0 0 0
:bonedata
  begin
    id 1
    name RightUpLegDummy
    direction -0.718183 -0.695806 0.00816078
    length 4.904
    axis 0 0 0 xyz
  end
  begin
    id 2
    name RightUpLeg
    direction 3.53989e-006 -0.995788 0.0916897
    length 17.4976
    axis -3.49089 -0.000906621 0.000287158 xyz
    dof rx ry rz
  end
  begin
    id 3
    name RightLeg
    direction 0.00371093 -0.995096 -0.0988418
    length 16.5821
    axis 3.68512 0.0193738 -0.131023 xyz
    dof rx ry rz
  end
  begin
    id 4
    name RightFoot
    direction 0.000791514 -0.46099 0.887405
    length 3.77069
    axis 4.84075e-005 -0.120479 -0.188788 xyz
    dof rx ry rz
  end
  begin
    id 5
    name RightToes
    direction 0.00124746 -0.014064 0.9999
    length 3.85082
    axis 0.00048216 0.542163 -0.142577 xyz
    dof rx ry rz
  end
  begin
    id 6
    name SpineDummy
    direction 8.3039e-015 1 4.57515e-016
    length 4.6813
    axis 0 0 0 xyz
  end
  begin
    id 7
    name Spine
    direction -4.63632e-008 0.999988 0.00495137
    length 10.1015
    axis -0.00138897 0.000121419 3.25764e-006 xyz
    dof rx ry rz
  end
  begin
    id 8
    name Spine1
    direction 0 0 0
    length 0
    axis -0.00138896 0.000121452 2.39764e-006 xyz
    dof rx ry rz
  end
  begin
    id 9
    name HEadDummy
    direction -3.91456e-008 0.999999 0.00127422
    length 3.43865
    axis -0.00138896 0.000121452 2.39764e-006 xyz
  end
  begin
    id 10
    name HEad
    direction -0.0222688 0.980941 0.193023
    length 5.12695
    axis -0.00138895 0.000121452 2.39764e-006 xyz
    dof rx ry rz
  end
  begin
    id 11
    name LeftShoulder1Dummy
    direction 0.998891 -0.0402508 -0.0244456
    length 3.5433
    axis -0.00138896 0.000121452 2.39764e-006 xyz
  end
  begin
    id 12
    name LeftShoulder1
    direction 0.99951 -0.000327743 0.0313091
    length 4.05031
    axis -0.00138896 0.000121452 2.39764e-006 xyz
    dof rx ry rz
  end
  begin
    id 13
    name LeftArm
    direction 0.998561 -0.00100054 -0.0536182
    length 10.3537
    axis -23.1894 0.134784 0.96751 xyz
    dof rx ry rz
  end
  begin
    id 14
    name LeftForeArm
    direction 0.998903 0.00866434 0.046012
    length 8.70632
    axis -9.91835 -0.06569 -0.177792 xyz
    dof rx ry rz
  end
  begin
    id 15
    name LeftHand
    direction 0.992938 -0.0411636 0.11126
    length 5.32135
    axis -0.00960227 -0.00340091 0.185174 xyz
    dof rx ry rz
  end
  begin
    id 16
    name RightShoulderDummy
    direction -0.998891 -0.0402509 -0.0244414
    length 3.5433
    axis -0.00138896 0.000121452 2.39764e-006 xyz
  end
  begin
    id 17
    name RightShoulder
    direction -0.99951 -0.000327827 0.0313133
    length 4.05031
    axis 0.215806 0.000203644 -0.00680151 xyz
    dof rx ry rz
  end
  begin
    id 18
    name RightArm
    direction -0.998573 -0.000999583 -0.053403
    length 10.3947
    axis -23.2009 -0.134239 -0.9641 xyz
    dof rx ry rz
  end
  begin
    id 19
    name RightForeArm
    direction -0.998898 0.00868026 0.0461306
    length 8.68355
    axis -9.92322 0.0658061 0.178869 xyz
    dof rx ry rz
  end
  begin
    id 20
    name RightHand
    direction -0.992843 -0.0414603 0.112003
    length 5.28593
    axis -0.00960634 0.00330671 -0.185226 xyz
    dof rx ry rz
  end
  begin
    id 21
    name LeftUpLegDummy
    direction 0.718183 -0.695806 0.00816078
    length 4.904
    axis 0 0 0 xyz
  end
  begin
    id 22
    name LeftUpLeg
    direction -6.8115e-006 -0.995793 0.0916336
    length 17.4976
    axis -3.48766 0.00143441 -0.000523914 xyz
    dof rx ry rz
  end
  begin
    id 23
    name LeftLeg
    direction -0.00601357 -0.995091 -0.0987824
    length 16.5821
    axis 3.68177 -0.00654038 -0.00028478 xyz
    dof rx ry rz
  end
  begin
    id 24
    name LeftFoot
    direction -0.00417578 -0.460984 0.887399
    length 3.77069
    axis 1.87232e-006 4.66002e-005 -8.1837e-006 xyz
    dof rx ry rz
  end
  begin
    id 25
    name LeftToes
    direction 0.00818058 -0.00485161 0.999955
    length 3.85048
    axis 1.06246e-005 4.65855e-005 -8.18502e-006 xyz
    dof rx ry rz
  end
:hierarchy
  begin
    root RightUpLegDummy SpineDummy LeftUpLegDummy
    RightUpLegDummy RightUpLeg
    RightUpLeg RightLeg
    RightLeg RightFoot
    RightFoot RightToes
    SpineDummy Spine
    Spine Spine1
    Spine1 HEadDummy LeftShoulder1Dummy RightShoulderDummy
    HEadDummy HEad
    LeftShoulder1Dummy LeftShoulder1
    LeftShoulder1 LeftArm
    LeftArm LeftForeArm
    LeftForeArm LeftHand
    RightShoulderDummy RightShoulder
    RightShoulder RightArm
    RightArm RightForeArm
    RightForeArm RightHand
    LeftUpLegDummy LeftUpLeg
    LeftUpLeg LeftLeg
    LeftLeg LeftFoot
    LeftFoot LeftToes
  end

:SAMPLES-PER-SECOND 30
:FRAME-RANGE 1-744
:FULLY-SPECIFIED
:DEGREES
1
root  -62.8998 39.8489 -89.8465 -179.786 46.866 179.095
RightUpLeg  -2.84821 -4.18556 -0.145782
RightLeg  12.4522 2.02892 0.62467
RightFoot  -8.5761 0.0134355 -2.95833
RightToes  -5.28216e-011 1.2921e-014 -6.02303e-014
Spine  -9.62013 -3.78349 -1.90076
Spine1  10.211 -3.79097 -0.335609
HEad  6.76222 -17.8791 3.71046
LeftShoulder1  0.603023 1.16968 -22.1448
LeftArm  -4.48825 16.1412 -43.5674
LeftForeArm  32.5603 7.71986 -11.9748
LeftHand  -0.0116791 5.63335 3.01531
RightShoulder  0.485017 -1.8732 27.4838
RightArm  -25.8569 -7.32495 45.1281
RightForeArm  72.2079 -5.2332 3.60635
RightHand  0.320246 -7.93994 -15.4911
LeftUpLeg  -3.71277 3.20888 1.1877
LeftLeg  8.31329 10.2577 3.05652
LeftFoot  -3.55733 0.290491 -3.98273
LeftToes  -9.4837e-011 -7.11147e-011 -1.07582e-011
2
root  -62.8444 39.83 -89.7333 -179.777 47.5724 179.133
RightUpLeg  -3.08246 -3.9842 0.0834024
RightLeg  12.7225 2.5324 0.7222
RightFoot  -8.65087 0.0203003 -3.35324
RightToes  -5.28216e-011 1.2921e-014 -6.02303e-014
Spine  -9.48255 -3.80439 -1.79732
Spine1  10.1972 -3.8427 -0.230666
HEad  7.29477 -17.3465 3.31679
LeftShoulder1  0.572025 1.28743 -22.263
LeftArm  -4.98445 17.1114 -43.4694
LeftForeArm  32.94 7.71365 -11.9722
LeftHand  -0.0133155 5.84489 3.14989
RightShoulder  0.493213 -1.85297 27.5894
RightArm  -25.4904 -7.14439 45.7059
RightForeArm  72.0452 -5.27873 3.84118
RightHand  0.331761 -8.10038 -15.1094
LeftUpLeg  -3.90503 3.08176 1.36203
LeftLeg  8.84046 11.013 3.3896
LeftFoot  -3.66214 0.316128 -4.38217
LeftToes  -9.4837e-011 -7.11147e-011 -1.07582e-011
3
root  -62.7966 39.8065 -89.5976 -179.767 48.1188 179.214
RightUpLeg  -3.25893 -3.75696 0.391627
RightLeg  12.9068 2.76256 0.76568
RightFoot  -8.65311 0.0222521 -3.4396
RightToes  -5.28216e-011 1.2921e-014 -6.02303e-014
Spine  -9.26322 -3.83624 -1.66593
Spine1  10.2354 -3.92453 -0.0236464
HEad  7.26238 -17.0232 3.07717
LeftShoulder1  0.561442 1.33202 -22.3736
LeftArm  -5.1801 17.6646 -43.6909
LeftForeArm  33.4365 7.71564 -12.035
LeftHand  -0.0182004 5.83778 2.72547
RightShoulder  0.499588 -1.84007 27.7377
RightArm  -25.7432 -6.62664 46.3703
RightForeArm  71.3715 -5.28458 3.71532
RightHand  0.264982 -7.58081 -15.1013
LeftUpLeg  -4.23224 2.78179 1.58906
LeftLeg  9.6038 11.7915 3.75882
LeftFoot  -3.74615 0.336064 -4.72331
LeftToes  -9.4837e-011 -7.11147e-011 -1.07582e-011
4
root  -62.7732 39.7682 -89.4423 -179.614 48.565 179.372
RightUpLeg  -3.66771 -3.57445 0.744816
RightLeg  13.3025 2.98711 0.824321
RightFoot  -8.73886 0.0237647 -3.64444
RightToes  -5.28216e-011 1.2921e-014 -6.02303e-014
Spine  -8.9708 -3.84139 -1.35272
Spine1  10.1595 -3.98195 0.163627
HEad  7.24054 -16.928 2.80058
LeftShoulder1  0.559279 1.34891 -22.5167
LeftArm  -5.26889 17.7908 -44.1671
LeftForeArm  33.5943 7.71961 -12.0768
LeftHand  -0.0200058 5.93577 2.67414
RightShoulder  0.531861 -1.75073 27.8908
RightArm  -25.6568 -5.82694 47.0026
RightForeArm  70.6141 -5.32148 3.75778
RightHand  0.279215 -7.62988 -15.4804
LeftUpLeg  -4.87875 2.3066 1.91247
LeftLeg  10.7284 12.563 4.12308
LeftFoot  -3.97368 0.362055 -5.2516
LeftToes  -9.4837e-011 -7.11147e-011 -1.07582e-011
5
root  -62.7774 39.7137 -89.2715 -179.303 48.8092 179.689
RightUpLeg  -4.22475 -3.58242 1.16578
RightLeg  13.8657 3.21507 0.939202
RightFoot  -8.89637 0.0278678 -4.11981
RightToes  -5.28216e-011 1.2921e-014 -6.02303e-014
Spine  -8.51952 -3.79128 -0.702984
Spine1  9.95424 -3.97078 0.299506
HEad  7.23653 -16.9936 2.674
LeftShoulder1  0.581978 1.26975 -22.5204
LeftArm  -5.31779 17.4655 -44.953
LeftForeArm  33.6328 7.72068 -12.0877
LeftHand  -0.0185741 5.92801 2.7602
RightShoulder  0.535202 -1.74382 27.9587
RightArm  -25.412 -4.78382 47.7318
RightForeArm  70.426 -5.34564 3.85882
RightHand  0.309478 -7.78945 -15.8945
LeftUpLeg  -5.85887 1.62694 2.39323
LeftLeg  12.2954 13.3878 4.49019
LeftFoot  -4.22046 0.37501 -5.6181
LeftToes  -9.4837e-011 -7.11147e-011 -1.07582e-011
6
root  -62.8108 39.6449 -89.0798 -178.999 48.7898 179.872
RightUpLeg  -5.00764 -3.91746 1.45328
RightLeg  14.6098 3.47337 1.14218
RightFoot  -9.10754 0.0249648 -4.43258
RightToes  -5.28216e-011 1.2921e-014 -6.02303e-014
Spine  -7.95564 -3.70248 -0.109472
Spine1  9.63385 -3.93065 0.4912
HEad  7.08676 -17.3542 2.64702
LeftShoulder1  0.615238 1.15919 -22.6019
LeftArm  -5.71032 16.4807 -45.9005
LeftForeArm  33.9619 7.68689 -11.9039
LeftHand  -0.0205421 5.77444 2.46128
RightShoulder  0.584705 -1.58883 27.7817
RightArm  -24.9481 -3.71786 48.4991
RightForeArm  70.2373 -5.38957 4.07911
RightHand  0.333715 -7.90861 -16.2401
LeftUpLeg  -7.14117 0.867291 2.83534
LeftLeg  14.0659 13.9656 4.78359
LeftFoot  -4.45167 0.400646 -6.20911
LeftToes  -9.4837e-011 -7.11147e-011 -1.07582e-011
7
root  -62.8707 39.6029 -88.8787 -178.78 48.619 179.81
RightUpLeg  -5.84048 -4.26536 1.5572
RightLeg  15.1604 3.65613 1.31305
RightFoot  -9.17736 0.0258671 -4.64753
RightToes  -5.28216e-011 1.2921e-014 -6.02303e-014
Spine  -7.51516 -3.57691 0.527872
Spine1  9.48004 -3.78221 0.347946
HEad  6.45611 -17.8456 3.05795
LeftShoulder1  0.657472 1.0052 -22.5141
LeftArm  -6.06208 14.8982 -47.0572
LeftForeArm  34.3559 7.64648 -11.6853
LeftHand  -0.0226767 5.6332 2.5055
RightShoulder  0.629359 -1.45442 27.7507
RightArm  -24.8059 -2.1325 49.1943
RightForeArm  70.275 -5.38614 4.06729
RightHand  0.297065 -7.59534 -16.5625
LeftUpLeg  -8.4945 0.424203 3.08394
LeftLeg  15.5355 14.1785 4.9753
LeftFoot  -4.2415 0.430202 -6.52088
LeftToes  -9.4837e-011 -7.11147e-011 -1.07582e-011
8
root  -62.9551 39.6069 -88.6615 -178.733 48.3391 179.375
RightUpLeg  -6.6542 -4.49868 1.43057
RightLeg  15.3168 3.60228 1.3788
RightFoot  -8.96057 0.0395287 -4.81016
RightToes  -5.28216e-011 1.2921e-014 -6.02303e-014
Spine  -7.01341 -3.42336 0.976089
Spine1  9.21286 -3.57415 0.0883335
HEad  5.67749 -18.7068 3.52278
LeftShoulder1  0.709782 0.815644 -22.435
LeftArm  -6.17578 12.9348 -48.3172
LeftForeArm  33.8401 7.62496 -11.4931
LeftHand  -0.0228705 5.55423 2.94682
RightShoulder  0.706905 -1.21687 27.6371
RightArm  -24.6829 -0.449265 49.9255
RightForeArm  70.5011 -5.37033 4.02529
RightHand  0.323329 -7.74648 -16.7857
LeftUpLeg  -9.83031 0.137919 3.04631
LeftLeg  16.5079 14.0663 5.06655
LeftFoot  -3.40907 0.512513 -7.09217
LeftToes  -9.4837e-011 -7.11147e-011 -1.07582e-011
